<svg viewBox="0 0 16 16"><path fill="#828282" d="M8 .43a7.76 7.76 0 0 0-2.454 15.125c.388.07.53-.168.53-.374 0-.183-.007-.67-.01-1.32-2.16.47-2.614-1.04-2.614-1.04-.353-.895-.862-1.134-.862-1.134-.705-.48.053-.472.053-.472.78.055 1.19.8 1.19.8.69 1.186 1.815.843 2.257.645.07-.503.27-.844.493-1.038-1.723-.197-3.534-.862-3.534-3.836 0-.847.3-1.54.798-2.082-.08-.197-.347-.986.076-2.054 0 0 .652-.21 2.134.796A7.39 7.39 0 0 1 8 4.184a7.45 7.45 0 0 1 1.943.26c1.482-1.003 2.132-.795 2.132-.795.423 1.067.157 1.856.077 2.053.497.542.798 1.235.798 2.082 0 2.98-1.814 3.637-3.543 3.83.28.24.527.712.527 1.436 0 1.038-.01 1.875-.01 2.13 0 .208.14.45.534.373A7.762 7.762 0 0 0 7.998.43z"/></svg>