<svg xmlns="http://www.w3.org/2000/svg" viewBox="0 0 1200 1000" xmlns:xlink="http://www.w3.org/1999/xlink">
    <defs>
        <path id="a" d="M865 500V16c0-8.8-7.2-16-16-16H65a16 16 0 0 0-16 16v484H1v16a16 16 0 0 0 16 16h880a16 16 0 0 0 16-16v-16h-48z"/>
        <mask id="b" width="944" height="564" x="-16" y="-16">
            <path fill="#fff" d="M-15-16h944v564H-15z"/>
            <use xlink:href="#a"/>
        </mask>
        <linearGradient id="c" x1="0%" y1="0%" y2="100%">
            <stop stop-color="#6AC7D4" offset="0%"/>
            <stop stop-color="#7BC78D" offset="100%"/>
        </linearGradient>
    </defs>
    <g fill="none" fill-rule="evenodd">
        <g transform="translate(143 234)">
            <use stroke="#FFF" stroke-width="32" mask="url(#b)" stroke-linejoin="round" xlink:href="#a"/>
            <path fill="url(#c)" d="M865 500V16c0-8.8-7.2-16-16-16H65a16 16 0 0 0-16 16v484H1v16a16 16 0 0 0 16 16h880a16 16 0 0 0 16-16v-16h-48z"/>
            <path fill="#000" d="M497 512h-80a8 8 0 0 1-8-8h96a8 8 0 0 1-8 8M65 16h784v484H65V16m800 484V16a16 16 0 0 0-16-16H65a16 16 0 0 0-16 16v484H1v16a16 16 0 0 0 16 16h880a16 16 0 0 0 16-16v-16h-48z" opacity=".2"/>
        </g>
        <path d="M464 468.4h-24.6v-3c0-7.8 3-11 9-11 5.8 0 9.5 1.7 13.9 3.8l15.8-24.7a52.3 52.3 0 0 0-35-11.4c-22.3 0-38.4 13.7-38.4 42.5v3.8H389V499h15.6v66h34.7v-66H464v-30.6zm73.6-2.7c-11.8 0-20.3 3.8-25.7 12.4v-9.7h-33.1V565h34.8v-51.8c0-10.6 5.8-14 15.5-14a61 61 0 0 1 15.2 2.2l2-34.7c-1.4-.3-5-1-8.7-1zm68 0c-30.4 0-52.7 21.6-52.7 51 0 29.3 22.3 50.8 52.6 50.8 30.4 0 52.7-21.5 52.7-50.9 0-29.3-22.3-50.9-52.7-50.9zm0 32.3c9.9 0 17 7.8 17 18.6 0 10.9-7.1 18.7-17 18.7s-17.2-7.8-17.2-18.7c0-10.8 7.2-18.6 17.1-18.6zm124.3-32.3c-12 0-20.6 4.2-26 12.6v-10h-33.1V565h34.7v-51.8c0-10.4 5.1-15 12-15 7.7 0 12.2 5.2 12.2 14.8v52h34.8v-62.9c0-22.2-14.6-36.4-34.6-36.4zm128.7 2.7h-31.4v-27.7h-34.7v27.7H775V499h17.5v28c0 23.7 11.2 40.5 38.7 40.5a57 57 0 0 0 36.3-11.2L856 529.4c-4.5 2.5-10.3 5.9-15.7 5.9-7.5 0-13-3.3-13-13.7V499h31.4v-30.6zm-532.8 77.2c0 14.3 10 24.4 24 24.4s24-10.1 24-24.4c0-9.2-4.2-16.2-10.7-20.6l-7.2 10.3a12 12 0 0 1 5.8 10.4c0 5.8-4 11.2-12 11.2-7 0-11.9-4.7-11.9-11.1 0-4.5 2-8 5.9-10.2l-6.2-11.1c-7.4 4-11.7 12-11.7 21zm32.5-48.6c0-11.6-6.3-17.8-15.6-17.8-9.5 0-16 6.2-16 18v20.6h46.2v-12.6h-14.6V497zm-20.4.3c0-3.1 1.8-5.4 4.8-5.4s4.6 2.3 4.6 5.4v8H338v-8zm-11.2-37.5v12.5h46.2v-12.5h-17.6v-17.1h17.6V430h-46.2v12.6h17v17h-17z" fill="#FFF"/>
    </g>
</svg>
