<svg xmlns="http://www.w3.org/2000/svg" viewBox="0 0 560 247" aria-labelledby="title">
  <title>Copenhagen Fronteders</title>
  <path d="M156 101.4h-24.6v-3c0-7.8 3-11 9-11 5.8 0 9.5 1.7 13.9 3.8l15.8-24.7a52.3 52.3 0 0 0-35-11.4c-22.3 0-38.4 13.7-38.4 42.5v3.8H81V132h15.6v66h34.7v-66H156v-30.6zm73.6-2.7c-11.8 0-20.3 3.8-25.7 12.4v-9.7h-33.1V198h34.8v-51.8c0-10.6 5.8-14 15.5-14 5.5 0 11.2 1.2 15.2 2.2l2-34.7c-1.4-.3-5-1-8.7-1zm68 0c-30.4 0-52.7 21.6-52.7 51 0 29.3 22.3 50.8 52.6 50.8 30.4 0 52.7-21.5 52.7-50.9 0-29.3-22.3-50.9-52.7-50.9zm0 32.3c9.9 0 17 7.8 17 18.6 0 10.9-7.1 18.7-17 18.7-10 0-17.2-7.8-17.2-18.7 0-10.8 7.2-18.6 17.1-18.6zm124.3-32.3c-12 0-20.6 4.2-26 12.6v-10h-33.1V198h34.7v-51.8c0-10.4 5.1-15 12-15 7.7 0 12.2 5.2 12.2 14.8v52h34.8v-62.9c0-22.2-14.6-36.4-34.6-36.4zm128.7 2.7h-31.4V73.7h-34.7v27.7H467V132h17.5v28c0 23.7 11.2 40.5 38.7 40.5a57 57 0 0 0 36.3-11.2L548 162.4c-4.5 2.5-10.3 5.9-15.7 5.9-7.5 0-13-3.3-13-13.7V132h31.4v-30.6zM19.8 176.6c0 14.3 10 24.4 24 24.4s24-10.1 24-24.4c0-9.2-4.2-16.2-10.7-20.6L50 166.3a12 12 0 0 1 5.8 10.4c0 5.8-4 11.2-12 11.2-7 0-11.9-4.7-11.9-11.1 0-4.5 2-8 5.9-10.2l-6.2-11.1c-7.4 4-11.7 12-11.7 21zM52.3 128c0-11.6-6.3-17.8-15.6-17.8-9.5 0-16 6.2-16 18v20.6h46.2v-12.6H52.3V128zm-20.4.3c0-3.1 1.8-5.4 4.8-5.4s4.6 2.3 4.6 5.4v8H32v-8zM20.7 90.8v12.5h46.2V90.8H49.3V73.7h17.6V61H20.7v12.6h17v17h-17z"/>
</svg>
